<svg width="20" height="20" viewBox="0 0 20 20" fill="none" xmlns="http://www.w3.org/2000/svg">
<path d="M11.8083 17.4084C15.295 17.1775 18.0716 14.3609 18.3 10.825C18.3441 10.1334 18.3441 9.41669 18.3 8.72503C18.0716 5.19003 15.295 2.37503 11.8083 2.14253C10.6041 2.06317 9.39589 2.06317 8.19165 2.14253C4.70498 2.37419 1.92831 5.19003 1.69998 8.72586C1.65583 9.42517 1.65583 10.1266 1.69998 10.8259C1.78331 12.1134 2.35248 13.3059 3.02331 14.3125C3.41248 15.0167 3.15581 15.8959 2.74998 16.665C2.45831 17.2192 2.31164 17.4959 2.42914 17.6959C2.54581 17.8959 2.80831 17.9025 3.33248 17.915C4.36998 17.94 5.06915 17.6467 5.62415 17.2375C5.93831 17.005 6.09581 16.8892 6.20415 16.8759C6.31248 16.8625 6.52664 16.9509 6.95331 17.1259C7.33664 17.2842 7.78248 17.3817 8.19081 17.4092C9.37831 17.4875 10.6191 17.4875 11.8091 17.4092" stroke="black" stroke-linecap="round" stroke-linejoin="round"/>
<path d="M6.25 12.5L7.785 7.89503C7.82353 7.78011 7.8972 7.6802 7.99559 7.60941C8.09398 7.53863 8.21212 7.50054 8.33333 7.50054C8.45454 7.50054 8.57269 7.53863 8.67108 7.60941C8.76947 7.6802 8.84314 7.78011 8.88167 7.89503L10.4167 12.5M12.9167 7.50003V12.5M7.08333 10.8334H9.58333" stroke="black" stroke-linecap="round" stroke-linejoin="round"/>
</svg>
