<svg width="24" height="24" viewBox="0 0 24 24" fill="none" xmlns="http://www.w3.org/2000/svg">
<path d="M16.3551 3.85006C16.5024 3.99745 16.585 4.19726 16.585 4.40558C16.585 4.6139 16.5024 4.81371 16.3551 4.9611L9.31256 12.0047L16.3562 19.0483C16.4993 19.1967 16.5785 19.3953 16.5766 19.6014C16.5747 19.8075 16.4919 20.0047 16.3461 20.1503C16.2003 20.296 16.0031 20.3786 15.7969 20.3803C15.5908 20.382 15.3923 20.3027 15.2441 20.1594L7.64494 12.5602C7.49773 12.4129 7.41504 12.213 7.41504 12.0047C7.41504 11.7964 7.49773 11.5966 7.64494 11.4492L15.2441 3.85006C15.3171 3.777 15.4038 3.71905 15.4992 3.67952C15.5946 3.63998 15.6969 3.61963 15.8001 3.61963C15.9034 3.61963 16.0057 3.63998 16.1011 3.67952C16.1965 3.71905 16.2832 3.777 16.3562 3.85006" fill="#121212"/>
</svg>
