<svg width="24" height="24" viewBox="0 0 24 24" fill="none" xmlns="http://www.w3.org/2000/svg">
<path d="M20.1499 7.64492C20.0025 7.49771 19.8027 7.41502 19.5944 7.41502C19.3861 7.41502 19.1863 7.49771 19.0389 7.64492L11.9953 14.6875L4.95165 7.64388C4.80332 7.50075 4.60471 7.4216 4.39859 7.42349C4.19247 7.42538 3.99534 7.50815 3.84966 7.65397C3.70397 7.79979 3.62139 7.997 3.6197 8.20312C3.61801 8.40924 3.69733 8.60778 3.8406 8.75597L11.4398 16.3551C11.5871 16.5023 11.787 16.585 11.9953 16.585C12.2036 16.585 12.4034 16.5023 12.5508 16.3551L20.1499 8.75597C20.223 8.68297 20.2809 8.59628 20.3205 8.50088C20.36 8.40547 20.3804 8.3032 20.3804 8.19992C20.3804 8.09665 20.36 7.99438 20.3205 7.89897C20.2809 7.80356 20.223 7.71688 20.1499 7.64388" fill="#121212"/>
</svg>
