<svg width="24" height="24" viewBox="0 0 24 24" fill="none" xmlns="http://www.w3.org/2000/svg">
<path d="M7.64486 3.85006C7.49765 3.99745 7.41496 4.19726 7.41496 4.40558C7.41496 4.6139 7.49765 4.81371 7.64486 4.9611L14.6874 12.0047L7.64382 19.0483C7.50069 19.1967 7.42154 19.3953 7.42343 19.6014C7.42532 19.8075 7.50809 20.0047 7.65391 20.1503C7.79973 20.296 7.99694 20.3786 8.20306 20.3803C8.40918 20.382 8.60772 20.3027 8.75591 20.1594L16.3551 12.5602C16.5023 12.4129 16.585 12.213 16.585 12.0047C16.585 11.7964 16.5023 11.5966 16.3551 11.4492L8.75591 3.85006C8.68291 3.777 8.59622 3.71905 8.50081 3.67952C8.40541 3.63998 8.30314 3.61963 8.19986 3.61963C8.09659 3.61963 7.99432 3.63998 7.89891 3.67952C7.8035 3.71905 7.71682 3.777 7.64382 3.85006" fill="#121212"/>
</svg>
