<svg width="24" height="24" viewBox="0 0 24 24" fill="none" xmlns="http://www.w3.org/2000/svg">
<path d="M3.85006 16.3551C3.99745 16.5023 4.19726 16.585 4.40558 16.585C4.6139 16.585 4.81371 16.5023 4.9611 16.3551L12.0047 9.3125L19.0483 16.3561C19.1967 16.4993 19.3953 16.5784 19.6014 16.5765C19.8075 16.5746 20.0047 16.4919 20.1503 16.346C20.296 16.2002 20.3786 16.003 20.3803 15.7969C20.382 15.5908 20.3027 15.3922 20.1594 15.244L12.5602 7.64488C12.4129 7.49767 12.213 7.41498 12.0047 7.41498C11.7964 7.41498 11.5966 7.49767 11.4492 7.64488L3.85006 15.244C3.777 15.317 3.71905 15.4037 3.67952 15.4991C3.63998 15.5945 3.61963 15.6968 3.61963 15.8001C3.61963 15.9034 3.63998 16.0056 3.67952 16.101C3.71905 16.1964 3.777 16.2831 3.85006 16.3561" fill="#121212"/>
</svg>
