<svg width="24" height="24" viewBox="0 0 24 24" fill="none" xmlns="http://www.w3.org/2000/svg">
<path d="M4.50002 10C4.50002 8.54131 5.07948 7.14236 6.11093 6.11091C7.14238 5.07946 8.54133 4.5 10 4.5C11.4587 4.5 12.8577 5.07946 13.8891 6.11091C14.9206 7.14236 15.5 8.54131 15.5 10C15.5 11.4587 14.9206 12.8576 13.8891 13.8891C12.8577 14.9205 11.4587 15.5 10 15.5C8.54133 15.5 7.14238 14.9205 6.11093 13.8891C5.07948 12.8576 4.50002 11.4587 4.50002 10ZM10 3C8.88069 3.00009 7.7777 3.26861 6.78358 3.78303C5.78946 4.29745 4.9332 5.04276 4.28662 5.95645C3.64004 6.87015 3.22199 7.92557 3.06756 9.0342C2.91312 10.1428 3.0268 11.2723 3.39904 12.3279C3.77129 13.3836 4.39126 14.3345 5.20694 15.101C6.02262 15.8676 7.01022 16.4273 8.08691 16.7333C9.1636 17.0393 10.298 17.0827 11.3949 16.8597C12.4918 16.6368 13.5192 16.154 14.391 15.452L19.72 20.78C19.7887 20.8537 19.8715 20.9128 19.9635 20.9538C20.0555 20.9948 20.1548 21.0168 20.2555 21.0186C20.3562 21.0204 20.4562 21.0018 20.5496 20.9641C20.643 20.9264 20.7278 20.8703 20.7991 20.799C20.8703 20.7278 20.9264 20.643 20.9641 20.5496C21.0019 20.4562 21.0204 20.3562 21.0186 20.2555C21.0168 20.1548 20.9948 20.0555 20.9538 19.9635C20.9128 19.8715 20.8537 19.7887 20.78 19.72L15.452 14.391C16.2804 13.3625 16.801 12.1207 16.9536 10.809C17.1062 9.49727 16.8847 8.16912 16.3145 6.97795C15.7444 5.78677 14.849 4.78117 13.7316 4.07727C12.6143 3.37338 11.3206 2.99991 10 3Z" fill="#121212"/>
</svg>
