<svg width="24" height="24" viewBox="0 0 24 24" fill="none" xmlns="http://www.w3.org/2000/svg">
<path fill-rule="evenodd" clip-rule="evenodd" d="M2.82747 0.766507C3.08994 0.50444 3.4051 0.301144 3.75207 0.170092C4.09904 0.0390392 4.46991 -0.0167773 4.84008 0.00634104C5.21026 0.0294594 5.5713 0.130985 5.89927 0.304189C6.22724 0.477393 6.51466 0.718321 6.74247 1.01101L9.43497 4.47001C9.92847 5.10451 10.1025 5.93101 9.90747 6.71101L9.08697 9.99601C9.04485 10.1662 9.04729 10.3443 9.09406 10.5133C9.14082 10.6822 9.23034 10.8362 9.35397 10.9605L13.0395 14.646C13.1639 14.7699 13.3182 14.8596 13.4874 14.9063C13.6567 14.9531 13.8351 14.9554 14.0055 14.913L17.289 14.0925C17.6739 13.9968 18.0756 13.9896 18.4637 14.0715C18.8519 14.1533 19.2164 14.322 19.53 14.565L22.989 17.256C24.2325 18.2235 24.3465 20.061 23.2335 21.1725L21.6825 22.7235C20.5725 23.8335 18.9135 24.321 17.367 23.7765C13.408 22.3854 9.81378 20.1191 6.85197 17.1465C3.87953 14.1851 1.6133 10.5915 0.221974 6.63301C-0.321026 5.08801 0.166474 3.42751 1.27647 2.31751L2.82747 0.766507Z" fill="black"/>
</svg>
