<svg width="20" height="20" viewBox="0 0 20 20" fill="none" xmlns="http://www.w3.org/2000/svg">
<path d="M14.7958 11.6666C15.2928 11.6671 15.7693 11.8648 16.1206 12.2164C16.4719 12.568 16.6692 13.0446 16.6692 13.5416V14.0208C16.6692 14.7658 16.4025 15.4866 15.9192 16.0524C14.6108 17.5799 12.6217 18.3341 10 18.3341C7.37834 18.3341 5.39 17.5799 4.085 16.0508C3.60218 15.4852 3.33684 14.7661 3.33667 14.0224V13.5408C3.33689 13.0438 3.53442 12.5672 3.88584 12.2158C4.23727 11.8644 4.71384 11.6668 5.21084 11.6666H14.7958ZM14.7958 12.9166H5.21C5.04424 12.9166 4.88527 12.9825 4.76806 13.0997C4.65085 13.2169 4.585 13.3758 4.585 13.5416V14.0224C4.585 14.4683 4.745 14.8999 5.035 15.2391C6.07917 16.4633 7.71834 17.0841 9.99917 17.0841C12.2817 17.0841 13.9208 16.4633 14.9683 15.2399C15.2589 14.9002 15.4185 14.4678 15.4183 14.0208V13.5408C15.4181 13.3754 15.3524 13.2169 15.2356 13.1C15.1187 12.983 14.9612 12.9171 14.7958 12.9166ZM10 1.67078C10.5472 1.67078 11.089 1.77855 11.5945 1.98794C12.1 2.19734 12.5594 2.50425 12.9463 2.89116C13.3332 3.27808 13.6401 3.73741 13.8495 4.24293C14.0589 4.74845 14.1667 5.29027 14.1667 5.83744C14.1667 6.38462 14.0589 6.92643 13.8495 7.43196C13.6401 7.93748 13.3332 8.39681 12.9463 8.78372C12.5594 9.17063 12.1 9.47755 11.5945 9.68694C11.089 9.89633 10.5472 10.0041 10 10.0041C8.89493 10.0041 7.83513 9.56512 7.05372 8.78372C6.27232 8.00232 5.83334 6.94251 5.83334 5.83744C5.83334 4.73237 6.27232 3.67257 7.05372 2.89116C7.83513 2.10976 8.89493 1.67078 10 1.67078ZM10 2.92078C9.61698 2.92078 9.23771 2.99622 8.88384 3.14279C8.52998 3.28937 8.20845 3.50421 7.93761 3.77505C7.66677 4.04589 7.45193 4.36742 7.30535 4.72128C7.15878 5.07515 7.08334 5.45442 7.08334 5.83744C7.08334 6.22047 7.15878 6.59974 7.30535 6.9536C7.45193 7.30747 7.66677 7.629 7.93761 7.89984C8.20845 8.17068 8.52998 8.38552 8.88384 8.53209C9.23771 8.67867 9.61698 8.75411 10 8.75411C10.7736 8.75411 11.5154 8.44682 12.0624 7.89984C12.6094 7.35286 12.9167 6.61099 12.9167 5.83744C12.9167 5.06389 12.6094 4.32203 12.0624 3.77505C11.5154 3.22807 10.7736 2.92078 10 2.92078Z" fill="#121212"/>
</svg>
