<svg width="19" height="19" viewBox="0 0 19 19" fill="none" xmlns="http://www.w3.org/2000/svg">
<path d="M11.3988 17.2788C15.0598 17.0364 17.9753 14.0789 18.215 10.3663C18.2614 9.64 18.2614 8.8875 18.215 8.16125C17.9753 4.44951 15.0598 1.49376 11.3988 1.24963C10.1343 1.1663 8.86572 1.1663 7.60126 1.24963C3.94026 1.49288 1.02476 4.4495 0.785007 8.16213C0.738656 8.8964 0.738656 9.63286 0.785007 10.3671C0.872507 11.719 1.47013 12.9711 2.17451 14.0281C2.58313 14.7675 2.31363 15.6906 1.88751 16.4983C1.58126 17.0801 1.42726 17.3706 1.55063 17.5806C1.67313 17.7906 1.94876 17.7976 2.49913 17.8108C3.58851 17.837 4.32263 17.529 4.90538 17.0994C5.23526 16.8553 5.40063 16.7336 5.51438 16.7196C5.62813 16.7056 5.85301 16.7984 6.30101 16.9821C6.70351 17.1484 7.17163 17.2508 7.60038 17.2796C8.84726 17.3619 10.1501 17.3619 11.3996 17.2796" stroke="url(#paint0_linear_555_561)" stroke-width="1.5" stroke-linecap="round" stroke-linejoin="round"/>
<path d="M5.5625 12.125L7.17425 7.28975C7.21471 7.16908 7.29206 7.06418 7.39537 6.98985C7.49868 6.91553 7.62273 6.87554 7.75 6.87554C7.87727 6.87554 8.00132 6.91553 8.10463 6.98985C8.20794 7.06418 8.28529 7.16908 8.32575 7.28975L9.9375 12.125M12.5625 6.875V12.125M6.4375 10.375H9.0625" stroke="url(#paint1_linear_555_561)" stroke-width="1.5" stroke-linecap="round" stroke-linejoin="round"/>
<defs>
<linearGradient id="paint0_linear_555_561" x1="0.750244" y1="9.49972" x2="18.2498" y2="9.49972" gradientUnits="userSpaceOnUse">
<stop stop-color="#95E700"/>
<stop offset="1" stop-color="#2DC5F4"/>
</linearGradient>
<linearGradient id="paint1_linear_555_561" x1="5.5625" y1="9.5" x2="12.5625" y2="9.5" gradientUnits="userSpaceOnUse">
<stop stop-color="#95E700"/>
<stop offset="1" stop-color="#2DC5F4"/>
</linearGradient>
</defs>
</svg>
