<svg width="24" height="24" viewBox="0 0 24 24" fill="none" xmlns="http://www.w3.org/2000/svg">
<path d="M12.8201 5.58L12.0001 6.402L11.1761 5.578C10.168 4.57004 8.80076 4.00383 7.37521 4.00393C5.94965 4.00402 4.58252 4.57041 3.57456 5.5785C2.56661 6.58659 2.00039 7.9538 2.00049 9.37935C2.00058 10.8049 2.56697 12.172 3.57506 13.18L11.4701 21.075C11.6107 21.2155 11.8013 21.2943 12.0001 21.2943C12.1988 21.2943 12.3894 21.2155 12.5301 21.075L20.4321 13.178C21.439 12.1698 22.0044 10.8032 22.0042 9.37829C22.0041 7.95342 21.4382 6.58691 20.4311 5.579C19.9314 5.07904 19.3382 4.68243 18.6852 4.41184C18.0323 4.14124 17.3324 4.00197 16.6256 4.00197C15.9187 4.00197 15.2189 4.14124 14.5659 4.41184C13.9129 4.68243 13.3197 5.08004 12.8201 5.58ZM19.3681 12.119L12.0001 19.485L4.63506 12.12C4.27209 11.7609 3.98368 11.3335 3.7864 10.8626C3.58911 10.3916 3.48686 9.88634 3.4855 9.37573C3.48414 8.86513 3.58371 8.35929 3.77848 7.88729C3.97325 7.41529 4.25939 6.98644 4.62044 6.62538C4.9815 6.26433 5.41035 5.97819 5.88235 5.78342C6.35435 5.58865 6.86019 5.48908 7.37079 5.49044C7.8814 5.49179 8.3867 5.59405 8.85765 5.79133C9.32861 5.98862 9.75593 6.27703 10.1151 6.64L11.4731 7.997C11.5437 8.06774 11.6278 8.12363 11.7204 8.1614C11.8129 8.19917 11.9121 8.21805 12.0121 8.21693C12.1121 8.21581 12.2108 8.19472 12.3025 8.15489C12.3942 8.11506 12.477 8.0573 12.5461 7.985L13.8801 6.64C14.6154 5.95557 15.5875 5.58301 16.5919 5.60068C17.5963 5.61836 18.5547 6.02489 19.2654 6.73476C19.9762 7.44463 20.384 8.4025 20.4029 9.40687C20.4219 10.4112 20.0505 11.3838 19.3671 12.12" fill="#121212"/>
</svg>
