<svg width="10" height="18" viewBox="0 0 10 18" fill="none" xmlns="http://www.w3.org/2000/svg">
<path d="M9.35514 0.850056C9.50235 0.997453 9.58504 1.19726 9.58504 1.40558C9.58504 1.6139 9.50235 1.81371 9.35514 1.9611L2.31256 9.00473L9.35618 16.0483C9.49931 16.1967 9.57846 16.3953 9.57657 16.6014C9.57468 16.8075 9.49191 17.0047 9.34609 17.1503C9.20027 17.296 9.00306 17.3786 8.79694 17.3803C8.59082 17.382 8.39228 17.3027 8.24409 17.1594L0.644942 9.56025C0.497728 9.41285 0.415039 9.21305 0.415039 9.00473C0.415039 8.7964 0.497728 8.5966 0.644942 8.4492L8.24409 0.850056C8.31709 0.777004 8.40378 0.719054 8.49919 0.679517C8.59459 0.639979 8.69686 0.619629 8.80014 0.619629C8.90341 0.619629 9.00568 0.639979 9.10109 0.679517C9.1965 0.719054 9.28318 0.777004 9.35618 0.850056" fill="#121212"/>
</svg>
