<svg width="8" height="12" viewBox="0 0 8 12" fill="none" xmlns="http://www.w3.org/2000/svg">
<path d="M1.0966 0.566704C0.998459 0.664969 0.943334 0.798172 0.943334 0.937053C0.943334 1.07593 0.998459 1.20914 1.0966 1.3074L5.79165 6.00315L1.0959 10.6989C1.00048 10.7978 0.947721 10.9302 0.948979 11.0676C0.950238 11.205 1.00542 11.3364 1.10263 11.4336C1.19985 11.5307 1.33132 11.5857 1.46873 11.5869C1.60614 11.588 1.7385 11.5351 1.8373 11.4396L6.9034 6.3735C7.00154 6.27523 7.05667 6.14203 7.05667 6.00315C7.05667 5.86427 7.00154 5.73107 6.9034 5.6328L1.8373 0.566704C1.78863 0.518003 1.73084 0.47937 1.66724 0.453011C1.60363 0.426653 1.53545 0.413086 1.4666 0.413086C1.39775 0.413086 1.32957 0.426653 1.26597 0.453011C1.20236 0.47937 1.14457 0.518003 1.0959 0.566704" fill="#121212"/>
</svg>
